<?xml version="1.0" encoding="utf-8"?>
<!-- Generator: Adobe Illustrator 21.1.0, SVG Export Plug-In . SVG Version: 6.00 Build 0)  -->
<svg version="1.1" id="Layer_1" xmlns="http://www.w3.org/2000/svg" xmlns:xlink="http://www.w3.org/1999/xlink" x="0px" y="0px"
	 viewBox="0 0 4529.1 1751.6" style="enable-background:new 0 0 4529.1 1751.6;" xml:space="preserve">
<style type="text/css">
	.st0{fill:#FFD200;}
	.st1{fill:#00076F;}
	.st2{fill:#E0E0E0;}
	.st3{fill:url(#SVGID_1_);}
	.st4{fill:#FFFFFF;}
</style>
<g>
	<g>
		<path class="st0" d="M4051.9,617.9c0,160.3-131.1,291.4-291.4,291.4H1467.6c-160.3,0-291.4-131.1-291.4-291.4v-52
			c0-160.3-66-291.4-66-291.4h2650.3c160.3,0,291.4,131.1,291.4,291.4V617.9z"/>
	</g>
</g>
<path class="st1" d="M3037.4,907.6H1768.5c-15.7-352.2-305.3-633.2-661.4-633.2h-11.5c-366.1,0-662.9,296.8-662.9,662.9
	s296.8,662.9,662.9,662.9h1941.8c174.9,0,317.9-143.1,317.9-317.9v-56.7C3355.3,1050.6,3212.3,907.6,3037.4,907.6z"/>
<g>
	<path class="st0" d="M1783.7,843.9c-11.6,1-20.1,11.1-19.1,22.7c0.3,3.2,24.4,320.4-188.5,508.4c-8.7,7.7-9.5,20.9-1.8,29.6
		c7.7,8.7,20.9,9.5,29.6,1.8c229-202.2,203.7-529.6,202.5-543.4C1805.4,851.4,1795.3,842.9,1783.7,843.9z"/>
</g>
<path class="st0" d="M761.6,174.6C454.1,304.2,255.4,603.5,255.4,937.3c0,269.8,132.1,523.4,353.4,678.3l0,0
	c19,13.3,45.1,8.7,58.4-10.3c13.3-19,8.6-45.1-10.3-58.4l0,0C458,1407.6,339.3,1179.7,339.3,937.3c0-299.9,178.5-568.9,454.9-685.3
	l0,0c21.3-9,31.4-33.6,22.4-55C807.5,175.6,783,165.6,761.6,174.6L761.6,174.6z"/>
<path class="st1" d="M1000.9,114c-28.5,2.8-57.1,7.1-84.9,12.8l0,0c-22.7,4.6-37.3,26.8-32.7,49.5c4.6,22.7,26.8,37.3,49.5,32.7l0,0
	c24.9-5.1,50.6-9,76.2-11.5l0,0c23.1-2.3,39.9-22.8,37.7-45.8C1044.5,128.6,1024,111.7,1000.9,114L1000.9,114z"/>
<g>
	<path class="st2" d="M1413.2,586.7c-85.1-85.2-198.3-132.1-318.9-132.2c-248.5,0-450.7,202.2-450.8,450.6
		c0,79.4,20.7,157,60.2,225.3l-64,233.5l239-62.7c65.8,35.9,140,54.8,215.4,54.9h0.2h0c248.5,0,450.7-202.2,450.8-450.7
		C1545.2,785.2,1498.3,671.9,1413.2,586.7L1413.2,586.7z M1094.3,1280.1h-0.1c-67.2,0-133.2-18.1-190.7-52.2l-13.7-8.1L747.9,1257
		l37.9-138.2l-8.9-14.2c-37.5-59.6-57.3-128.6-57.3-199.3c0.1-206.5,168.2-374.6,374.8-374.6c100.1,0,194.2,39.1,264.9,109.9
		c70.7,70.8,109.7,164.9,109.6,265C1468.9,1112.1,1300.8,1280.1,1094.3,1280.1z"/>
	
		<linearGradient id="SVGID_1_" gradientUnits="userSpaceOnUse" x1="905.9783" y1="1108.9009" x2="905.9783" y2="1534.1859" gradientTransform="matrix(2.0408 0 0 -2.0408 -756.5035 3601.1768)">
		<stop  offset="0" style="stop-color:#20B038"/>
		<stop  offset="1" style="stop-color:#60D66A"/>
	</linearGradient>
	<path class="st3" d="M660.4,1338.1l61-222.9c-37.7-65.2-57.5-139.2-57.4-215c0.1-237.1,193.1-430,430.2-430
		c115.1,0.1,223.1,44.8,304.3,126.1c81.2,81.3,125.9,189.3,125.9,304.3c-0.1,237.1-193.1,430.1-430.2,430.1c0,0,0,0,0,0h-0.2
		c-72,0-142.7-18.1-205.6-52.3L660.4,1338.1L660.4,1338.1z"/>
	<path class="st4" d="M982.9,713.9c-8.3-18.5-17.1-18.9-25.1-19.2c-6.5-0.3-13.9-0.3-21.3-0.3c-7.4,0-19.5,2.8-29.7,13.9
		c-10.2,11.1-39,38.1-39,92.9c0,54.8,39.9,107.7,45.5,115.2c5.6,7.4,77,123.4,190.2,168.1c94.1,37.1,113.2,29.7,133.6,27.9
		c20.4-1.9,65.9-26.9,75.2-52.9c9.3-26,9.3-48.3,6.5-52.9c-2.8-4.6-10.2-7.4-21.3-13s-65.9-32.5-76.1-36.2
		c-10.2-3.7-17.6-5.6-25.1,5.6c-7.4,11.1-28.8,36.2-35.2,43.6c-6.5,7.4-13,8.4-24.1,2.8c-11.1-5.6-47-17.3-89.5-55.3
		c-33.1-29.5-55.5-66-61.9-77.1c-6.5-11.1-0.7-17.2,4.9-22.7c5-5,11.1-13,16.7-19.5c5.6-6.5,7.4-11.1,11.1-18.6
		c3.7-7.4,1.9-13.9-0.9-19.5C1014.4,791,992.8,735.9,982.9,713.9L982.9,713.9z"/>
	<path class="st4" d="M1409.5,585.3c-84.1-84.2-196-130.6-315.2-130.6c-245.6,0-445.5,199.8-445.6,445.5
		c0,78.5,20.5,155.2,59.5,222.7l-63.2,230.8l236.2-61.9c65.1,35.5,138.4,54.2,213,54.2h0.2h0c245.6,0,445.5-199.9,445.6-445.5
		C1540,781.4,1493.7,669.5,1409.5,585.3L1409.5,585.3z M1094.3,1270.7h-0.1c-66.5,0-131.7-17.9-188.5-51.6l-13.5-8l-140.2,36.8
		l37.4-136.6l-8.8-14c-37.1-59-56.7-127.1-56.6-197.1C724,696,890.1,529.9,1094.4,529.9c98.9,0,191.9,38.6,261.9,108.6
		c69.9,70,108.4,163,108.4,262C1464.6,1104.6,1298.4,1270.7,1094.3,1270.7z"/>
</g>
<g>
	<path class="st1" d="M2309,695.6h-220.8l-53.1,79.6h-86.3L2228.1,353h86.9l99.6,422.2h-86.9L2309,695.6z M2252.6,441.7L2136,621.4
		h156.8L2252.6,441.7z"/>
	<path class="st1" d="M2655.2,556.9c-16.9-19.9-39.6-26.5-67.9-26.5c-35,0-56.6,10.9-60.6,29.6c-4.1,19.3,11.1,30.2,48.6,32.6
		c55.3,3.6,123.8,16.3,107,95.3c-11.2,52.5-63.6,97.7-148.6,97.7c-47,0-92.4-7.8-126.2-53.1l47.3-52.5c16.1,23.5,60.6,41,93.7,41.6
		c27.6,0.6,56.6-13.9,61.2-35.6c4.4-20.5-10.7-29-52.4-31.4c-55.2-4.2-117.8-24.7-103.4-92.3c14.6-68.8,90.9-92.9,145.2-92.9
		c46.4,0,79.5,9,107.5,39.2L2655.2,556.9z"/>
	<path class="st1" d="M2769.3,652.8c-3,36.8,23.3,63.3,75.2,63.3c27.1,0,64.9-10.3,85.5-27.7l37.2,46.4
		c-38.3,32.6-92.9,48.3-138.1,48.3c-102.5,0-150-63.3-129.7-158.6c19.2-90.5,94.6-155.6,191.1-155.6c99.5,0,148.6,61.5,111.1,184
		H2769.3z M2943.9,591.9c3.4-38.6-22.7-57.9-64.9-57.9c-39.8,0-76.5,19.3-95.5,57.9H2943.9z"/>
	<path class="st1" d="M3242.6,556.9c-16.9-19.9-39.6-26.5-67.9-26.5c-35,0-56.6,10.9-60.6,29.6c-4.1,19.3,11.1,30.2,48.6,32.6
		c55.3,3.6,123.8,16.3,107,95.3c-11.2,52.5-63.6,97.7-148.6,97.7c-47,0-92.4-7.8-126.2-53.1l47.3-52.5c16.1,23.5,60.6,41,93.7,41.6
		c27.6,0.6,56.6-13.9,61.2-35.6c4.4-20.5-10.7-29-52.4-31.4c-55.2-4.2-117.8-24.7-103.4-92.3c14.6-68.8,90.9-92.9,145.2-92.9
		c46.4,0,79.5,9,107.5,39.2L3242.6,556.9z"/>
	<path class="st1" d="M3595.1,626.9c-18.2,85.6-91.5,155-188,155s-139.7-69.4-121.5-155c18.1-85,92.1-155,186.8-155
		S3613.1,541.8,3595.1,626.9z M3359.2,626.9c-9.6,45.2,8.6,87.5,62.2,87.5c53.7,0,89.8-42.2,99.4-87.5c9.5-44.6-12.6-88.1-62.1-88.1
		C3405.7,538.8,3368.7,582.2,3359.2,626.9z"/>
	<path class="st1" d="M3715.4,477.9l-1.9,34.4c30.7-36.8,62.7-42.2,92.8-42.2c30.8,0,57.8,12.1,70.6,28.3l-46.8,63.9
		c-12.4-12.7-24.8-19.3-49-19.3c-38.6,0-78.5,20.5-90.2,75.4l-33.3,156.8H3584l63.2-297.4H3715.4z"/>
</g>
<g>
	<path class="st4" d="M1830.3,1317.7c-2.3,28.2,17.9,48.6,57.7,48.6c20.8,0,49.8-7.9,65.6-21.3l28.5,35.6c-29.4,25-71.3,37-106,37
		c-78.7,0-115.1-48.6-99.6-121.7c14.8-69.4,72.6-119.4,146.7-119.4c76.4,0,114,47.2,85.3,141.2H1830.3z M1964.3,1270.9
		c2.6-29.6-17.4-44.4-49.8-44.4c-30.6,0-58.7,14.8-73.3,44.4H1964.3z"/>
	<path class="st4" d="M2176.9,1411.6l25.4-119.4c7.4-34.7-6-61.1-42.1-61.1c-34.7,0-64.5,29.2-71.9,63.9l-24.8,116.7h-56l48.6-228.7
		h50.5l-2.9,31c28-22.7,53.6-34.3,82.3-34.3c53.7,0,88.2,40.3,72.9,112l-25.5,119.9H2176.9z"/>
	<path class="st4" d="M2509,1413h-63.4l-65.5-325.4h68.5l44,252.3l151.8-252.3h68.5L2509,1413z"/>
	<path class="st4" d="M2750.1,1182.5l-48.7,229.1h-56.5l48.7-229.1H2750.1z M2702,1119.1c-9.3,44,57.3,44,66.7,0
		S2711.4,1075.1,2702,1119.1z"/>
	<path class="st4" d="M3014.3,1182.9l-146,229.6h-61.1l-48.9-229.6h61.6l15.4,75.5l14.7,96.3l55-95.4l47.7-76.4H3014.3z"/>
	<path class="st4" d="M3220.9,1297.7c-14,65.7-70.2,119-144.3,119c-74.1,0-107.2-53.2-93.2-119c13.9-65.3,70.7-119,143.3-119
		C3199.5,1178.8,3234.8,1232.5,3220.9,1297.7z M3039.9,1297.7c-7.4,34.7,6.6,67.1,47.8,67.1c41.2,0,68.9-32.4,76.3-67.1
		c7.3-34.3-9.7-67.6-47.7-67.6C3075.6,1230.2,3047.2,1263.5,3039.9,1297.7z"/>
</g>
</svg>
